<svg width="100" height="100" viewBox="0 0 100 100" fill="none" xmlns="http://www.w3.org/2000/svg">
<rect width="100" height="100" fill="#E5E5E5"/>
<path d="M86.5243 0H13.4757C6.03366 0 0.000457764 6.03296 0.000457764 13.4752V86.5243C0.000457764 93.9666 6.03341 99.9995 13.4757 99.9995H49.5029L49.5643 64.2651H40.2805C39.074 64.2651 38.0948 63.2895 38.0901 62.083L38.0456 50.5644C38.041 49.3513 39.0231 48.3654 40.2362 48.3654H49.5031V37.2354C49.5031 24.3192 57.3916 17.2862 68.9137 17.2862H78.3685C79.5781 17.2862 80.5591 18.2669 80.5591 19.4768V29.1895C80.5591 30.3989 79.5789 31.3793 78.3697 31.3801L72.5674 31.3828C66.3013 31.3828 65.088 34.3604 65.088 38.7301V48.3657H78.8567C80.1687 48.3657 81.1865 49.5112 81.0319 50.8141L79.6667 62.3328C79.536 63.4351 78.6013 64.2656 77.4915 64.2656H65.1494L65.088 100H86.5248C93.9668 100 99.9997 93.967 99.9997 86.525V13.4752C99.9995 6.03296 93.9665 0 86.5243 0Z" fill="#060606"/>
</svg>
