<svg width="167" height="35" viewBox="0 0 167 35" fill="none" xmlns="http://www.w3.org/2000/svg">
<path d="M6 1.40625V27H0.726562V1.40625H6ZM21.3281 1.40625L11.1855 14.0449L5.33203 20.3379L4.38281 15.3457L8.33789 9.93164L14.8594 1.40625H21.3281ZM15.334 27L7.79297 15.1699L11.6953 11.9004L21.5742 27H15.334ZM28.2363 0V27H23.1738V0H28.2363ZM27.5156 16.8223H26.127C26.1387 15.498 26.3145 14.2793 26.6543 13.166C26.9941 12.041 27.4805 11.0684 28.1133 10.248C28.7461 9.41602 29.502 8.77148 30.3809 8.31445C31.2715 7.85742 32.2559 7.62891 33.334 7.62891C34.2715 7.62891 35.1211 7.76367 35.8828 8.0332C36.6562 8.29102 37.3184 8.71289 37.8691 9.29883C38.4316 9.87305 38.8652 10.6289 39.1699 11.5664C39.4746 12.5039 39.627 13.6406 39.627 14.9766V27H34.5293V14.9414C34.5293 14.0977 34.4062 13.4355 34.1602 12.9551C33.9258 12.4629 33.5801 12.1172 33.123 11.918C32.6777 11.707 32.127 11.6016 31.4707 11.6016C30.7441 11.6016 30.123 11.7363 29.6074 12.0059C29.1035 12.2754 28.6992 12.6504 28.3945 13.1309C28.0898 13.5996 27.8672 14.1504 27.7266 14.7832C27.5859 15.416 27.5156 16.0957 27.5156 16.8223ZM53.7422 22.7109V14.2383C53.7422 13.6289 53.6426 13.1074 53.4434 12.6738C53.2441 12.2285 52.9336 11.8828 52.5117 11.6367C52.1016 11.3906 51.5684 11.2676 50.9121 11.2676C50.3496 11.2676 49.8633 11.3672 49.4531 11.5664C49.043 11.7539 48.7266 12.0293 48.5039 12.3926C48.2812 12.7441 48.1699 13.1602 48.1699 13.6406H43.1074C43.1074 12.832 43.2949 12.0645 43.6699 11.3379C44.0449 10.6113 44.5898 9.97266 45.3047 9.42188C46.0195 8.85938 46.8691 8.41992 47.8535 8.10352C48.8496 7.78711 49.9629 7.62891 51.1934 7.62891C52.6699 7.62891 53.9824 7.875 55.1309 8.36719C56.2793 8.85938 57.1816 9.59766 57.8379 10.582C58.5059 11.5664 58.8398 12.7969 58.8398 14.2734V22.4121C58.8398 23.4551 58.9043 24.3105 59.0332 24.9785C59.1621 25.6348 59.3496 26.209 59.5957 26.7012V27H54.4805C54.2344 26.4844 54.0469 25.8398 53.918 25.0664C53.8008 24.2812 53.7422 23.4961 53.7422 22.7109ZM54.4102 15.416L54.4453 18.2812H51.6152C50.9473 18.2812 50.3672 18.3574 49.875 18.5098C49.3828 18.6621 48.9785 18.8789 48.6621 19.1602C48.3457 19.4297 48.1113 19.7461 47.959 20.1094C47.8184 20.4727 47.748 20.8711 47.748 21.3047C47.748 21.7383 47.8477 22.1309 48.0469 22.4824C48.2461 22.8223 48.5332 23.0918 48.9082 23.291C49.2832 23.4785 49.7227 23.5723 50.2266 23.5723C50.9883 23.5723 51.6504 23.4199 52.2129 23.1152C52.7754 22.8105 53.209 22.4355 53.5137 21.9902C53.8301 21.5449 53.9941 21.123 54.0059 20.7246L55.3418 22.8691C55.1543 23.3496 54.8965 23.8477 54.5684 24.3633C54.252 24.8789 53.8477 25.3652 53.3555 25.8223C52.8633 26.2676 52.2715 26.6367 51.5801 26.9297C50.8887 27.2109 50.0684 27.3516 49.1191 27.3516C47.9121 27.3516 46.8164 27.1113 45.832 26.6309C44.8594 26.1387 44.0859 25.4648 43.5117 24.6094C42.9492 23.7422 42.668 22.7578 42.668 21.6562C42.668 20.6602 42.8555 19.7754 43.2305 19.002C43.6055 18.2285 44.1562 17.5781 44.8828 17.0508C45.6211 16.5117 46.541 16.1074 47.6426 15.8379C48.7441 15.5566 50.0215 15.416 51.4746 15.416H54.4102ZM67.6992 12.041V27H62.6367V7.98047H67.3828L67.6992 12.041ZM66.9609 16.8223H65.5898C65.5898 15.416 65.7715 14.1504 66.1348 13.0254C66.498 11.8887 67.0078 10.9219 67.6641 10.125C68.3203 9.31641 69.0996 8.70117 70.002 8.2793C70.916 7.8457 71.9355 7.62891 73.0605 7.62891C73.9512 7.62891 74.7656 7.75781 75.5039 8.01562C76.2422 8.27344 76.875 8.68359 77.4023 9.24609C77.9414 9.80859 78.3516 10.5527 78.6328 11.4785C78.9258 12.4043 79.0723 13.5352 79.0723 14.8711V27H73.9746V14.8535C73.9746 14.0098 73.8574 13.3535 73.623 12.8848C73.3887 12.416 73.043 12.0879 72.5859 11.9004C72.1406 11.7012 71.5898 11.6016 70.9336 11.6016C70.2539 11.6016 69.6621 11.7363 69.1582 12.0059C68.666 12.2754 68.2559 12.6504 67.9277 13.1309C67.6113 13.5996 67.3711 14.1504 67.207 14.7832C67.043 15.416 66.9609 16.0957 66.9609 16.8223ZM94.9629 7.98047H99.5508V26.3672C99.5508 28.1016 99.1641 29.5723 98.3906 30.7793C97.6289 31.998 96.5625 32.918 95.1914 33.5391C93.8203 34.1719 92.2266 34.4883 90.4102 34.4883C89.6133 34.4883 88.7695 34.3828 87.8789 34.1719C87 33.9609 86.1562 33.6328 85.3477 33.1875C84.5508 32.7422 83.8828 32.1797 83.3438 31.5L85.5762 28.5117C86.1621 29.1914 86.8418 29.7188 87.6152 30.0938C88.3887 30.4805 89.2441 30.6738 90.1816 30.6738C91.0957 30.6738 91.8691 30.5039 92.502 30.1641C93.1348 29.8359 93.6211 29.3496 93.9609 28.7051C94.3008 28.0723 94.4707 27.3047 94.4707 26.4023V12.375L94.9629 7.98047ZM82.166 17.7188V17.3496C82.166 15.8965 82.3418 14.5781 82.6934 13.3945C83.0566 12.1992 83.5664 11.1738 84.2227 10.3184C84.8906 9.46289 85.6992 8.80078 86.6484 8.33203C87.5977 7.86328 88.6699 7.62891 89.8652 7.62891C91.1309 7.62891 92.1914 7.86328 93.0469 8.33203C93.9023 8.80078 94.6055 9.46875 95.1562 10.3359C95.707 11.1914 96.1348 12.2051 96.4395 13.377C96.7559 14.5371 97.002 15.8086 97.1777 17.1914V18C97.002 19.3242 96.7383 20.5547 96.3867 21.6914C96.0352 22.8281 95.5723 23.8242 94.998 24.6797C94.4238 25.5234 93.709 26.1797 92.8535 26.6484C92.0098 27.1172 91.002 27.3516 89.8301 27.3516C88.6582 27.3516 87.5977 27.1113 86.6484 26.6309C85.7109 26.1504 84.9082 25.4766 84.2402 24.6094C83.5723 23.7422 83.0566 22.7227 82.6934 21.5508C82.3418 20.3789 82.166 19.1016 82.166 17.7188ZM87.2285 17.3496V17.7188C87.2285 18.5039 87.3047 19.2363 87.457 19.916C87.6094 20.5957 87.8438 21.1992 88.1602 21.7266C88.4883 22.2422 88.8926 22.6465 89.373 22.9395C89.8652 23.2207 90.4453 23.3613 91.1133 23.3613C92.0391 23.3613 92.7949 23.168 93.3809 22.7812C93.9668 22.3828 94.4062 21.8379 94.6992 21.1465C94.9922 20.4551 95.1621 19.6582 95.209 18.7559V16.4531C95.1855 15.7148 95.0859 15.0527 94.9102 14.4668C94.7344 13.8691 94.4883 13.3594 94.1719 12.9375C93.8555 12.5156 93.4453 12.1875 92.9414 11.9531C92.4375 11.7188 91.8398 11.6016 91.1484 11.6016C90.4805 11.6016 89.9004 11.7539 89.4082 12.0586C88.9277 12.3516 88.5234 12.7559 88.1953 13.2715C87.8789 13.7871 87.6387 14.3965 87.4746 15.0996C87.3105 15.791 87.2285 16.541 87.2285 17.3496ZM106.213 1.40625H110.678L117.252 20.1973L123.826 1.40625H128.291L119.045 27H115.459L106.213 1.40625ZM103.805 1.40625H108.252L109.061 19.7227V27H103.805V1.40625ZM126.252 1.40625H130.717V27H125.443V19.7227L126.252 1.40625ZM134.215 17.6836V17.3145C134.215 15.9199 134.414 14.6367 134.812 13.4648C135.211 12.2812 135.791 11.2559 136.553 10.3887C137.314 9.52148 138.252 8.84766 139.365 8.36719C140.479 7.875 141.756 7.62891 143.197 7.62891C144.639 7.62891 145.922 7.875 147.047 8.36719C148.172 8.84766 149.115 9.52148 149.877 10.3887C150.65 11.2559 151.236 12.2812 151.635 13.4648C152.033 14.6367 152.232 15.9199 152.232 17.3145V17.6836C152.232 19.0664 152.033 20.3496 151.635 21.5332C151.236 22.7051 150.65 23.7305 149.877 24.6094C149.115 25.4766 148.178 26.1504 147.064 26.6309C145.951 27.1113 144.674 27.3516 143.232 27.3516C141.791 27.3516 140.508 27.1113 139.383 26.6309C138.27 26.1504 137.326 25.4766 136.553 24.6094C135.791 23.7305 135.211 22.7051 134.812 21.5332C134.414 20.3496 134.215 19.0664 134.215 17.6836ZM139.277 17.3145V17.6836C139.277 18.4805 139.348 19.2246 139.488 19.916C139.629 20.6074 139.852 21.2168 140.156 21.7441C140.473 22.2598 140.883 22.6641 141.387 22.957C141.891 23.25 142.506 23.3965 143.232 23.3965C143.936 23.3965 144.539 23.25 145.043 22.957C145.547 22.6641 145.951 22.2598 146.256 21.7441C146.561 21.2168 146.783 20.6074 146.924 19.916C147.076 19.2246 147.152 18.4805 147.152 17.6836V17.3145C147.152 16.541 147.076 15.8145 146.924 15.1348C146.783 14.4434 146.555 13.834 146.238 13.3066C145.934 12.7676 145.529 12.3457 145.025 12.041C144.521 11.7363 143.912 11.584 143.197 11.584C142.482 11.584 141.873 11.7363 141.369 12.041C140.877 12.3457 140.473 12.7676 140.156 13.3066C139.852 13.834 139.629 14.4434 139.488 15.1348C139.348 15.8145 139.277 16.541 139.277 17.3145ZM160.406 12.1289V27H155.344V7.98047H160.107L160.406 12.1289ZM166.137 7.85742L166.049 12.5508C165.803 12.5156 165.504 12.4863 165.152 12.4629C164.812 12.4277 164.502 12.4102 164.221 12.4102C163.506 12.4102 162.885 12.5039 162.357 12.6914C161.842 12.8672 161.408 13.1309 161.057 13.4824C160.717 13.834 160.459 14.2617 160.283 14.7656C160.119 15.2695 160.025 15.8438 160.002 16.4883L158.982 16.1719C158.982 14.9414 159.105 13.8105 159.352 12.7793C159.598 11.7363 159.955 10.8281 160.424 10.0547C160.904 9.28125 161.49 8.68359 162.182 8.26172C162.873 7.83984 163.664 7.62891 164.555 7.62891C164.836 7.62891 165.123 7.65234 165.416 7.69922C165.709 7.73438 165.949 7.78711 166.137 7.85742Z" fill="white"/>
</svg>
